<mxfile host="app.diagrams.net" modified="2022-01-15T11:42:40.161Z" agent="5.0 (Macintosh; Intel Mac OS X 10_15_7) AppleWebKit/537.36 (KHTML, like Gecko) Chrome/96.0.4664.110 Safari/537.36" etag="RsBai8Fj69xPqmU9CNZa" version="16.2.4" type="github" pages="3">
  <diagram id="NsPVhAkinqFgCoxngUAM" name="设备持久化">
    <mxGraphModel dx="1426" dy="737" grid="1" gridSize="10" guides="1" tooltips="1" connect="1" arrows="1" fold="1" page="1" pageScale="1" pageWidth="827" pageHeight="1169" math="0" shadow="0">
      <root>
        <mxCell id="0" />
        <mxCell id="1" parent="0" />
        <mxCell id="5zrpFRkQ7kHoa4eRrR6o-34" value="" style="rounded=1;whiteSpace=wrap;html=1;dashed=1;strokeWidth=2;fillColor=#FFFFFF;strokeColor=#FF3333;" parent="1" vertex="1">
          <mxGeometry x="403" y="360" width="187" height="50" as="geometry" />
        </mxCell>
        <mxCell id="5zrpFRkQ7kHoa4eRrR6o-33" value="" style="rounded=1;whiteSpace=wrap;html=1;dashed=1;strokeWidth=2;fillColor=#FFFFFF;strokeColor=#3399FF;" parent="1" vertex="1">
          <mxGeometry x="60" y="360" width="300" height="50" as="geometry" />
        </mxCell>
        <mxCell id="5zrpFRkQ7kHoa4eRrR6o-31" value="" style="rounded=1;whiteSpace=wrap;html=1;dashed=1;strokeWidth=2;fillColor=#FFFFFF;strokeColor=#FF3333;" parent="1" vertex="1">
          <mxGeometry x="526" y="230" width="64" height="50" as="geometry" />
        </mxCell>
        <mxCell id="5zrpFRkQ7kHoa4eRrR6o-2" value="" style="rounded=1;whiteSpace=wrap;html=1;dashed=1;strokeWidth=2;fillColor=#FFFFFF;strokeColor=#3399FF;" parent="1" vertex="1">
          <mxGeometry x="60" y="230" width="430" height="50" as="geometry" />
        </mxCell>
        <mxCell id="5zrpFRkQ7kHoa4eRrR6o-3" value="Register" style="text;html=1;strokeColor=none;fillColor=none;align=center;verticalAlign=middle;whiteSpace=wrap;rounded=0;strokeWidth=2;fontSize=20;fontStyle=0;fontFamily=Verdana;" parent="1" vertex="1">
          <mxGeometry x="64" y="240" width="84" height="30" as="geometry" />
        </mxCell>
        <mxCell id="5zrpFRkQ7kHoa4eRrR6o-7" value="L1/L2/L3 caches" style="text;html=1;strokeColor=none;fillColor=none;align=center;verticalAlign=middle;whiteSpace=wrap;rounded=0;strokeWidth=2;fontSize=20;fontStyle=0;fontFamily=Verdana;" parent="1" vertex="1">
          <mxGeometry x="190" y="240" width="170" height="30" as="geometry" />
        </mxCell>
        <mxCell id="5zrpFRkQ7kHoa4eRrR6o-12" value="Memory" style="text;html=1;strokeColor=none;fillColor=none;align=center;verticalAlign=middle;whiteSpace=wrap;rounded=0;strokeWidth=2;fontSize=20;fontStyle=0;fontFamily=Verdana;" parent="1" vertex="1">
          <mxGeometry x="400" y="240" width="84" height="30" as="geometry" />
        </mxCell>
        <mxCell id="5zrpFRkQ7kHoa4eRrR6o-15" value="Disk" style="text;html=1;strokeColor=none;fillColor=none;align=center;verticalAlign=middle;whiteSpace=wrap;rounded=0;strokeWidth=2;fontSize=20;fontStyle=0;fontFamily=Verdana;" parent="1" vertex="1">
          <mxGeometry x="530" y="240" width="50" height="30" as="geometry" />
        </mxCell>
        <mxCell id="5zrpFRkQ7kHoa4eRrR6o-18" value="Register" style="text;html=1;strokeColor=none;fillColor=none;align=center;verticalAlign=middle;whiteSpace=wrap;rounded=0;strokeWidth=2;fontSize=20;fontStyle=0;fontFamily=Verdana;" parent="1" vertex="1">
          <mxGeometry x="60" y="370" width="88" height="30" as="geometry" />
        </mxCell>
        <mxCell id="5zrpFRkQ7kHoa4eRrR6o-19" value="L1/L2/L3 caches" style="text;html=1;strokeColor=none;fillColor=none;align=center;verticalAlign=middle;whiteSpace=wrap;rounded=0;strokeWidth=2;fontSize=20;fontStyle=0;fontFamily=Verdana;" parent="1" vertex="1">
          <mxGeometry x="190" y="370" width="168" height="30" as="geometry" />
        </mxCell>
        <mxCell id="5zrpFRkQ7kHoa4eRrR6o-20" value="Persistent Memory" style="text;html=1;strokeColor=none;fillColor=none;align=center;verticalAlign=middle;whiteSpace=wrap;rounded=0;strokeWidth=2;fontSize=20;fontStyle=0;fontFamily=Verdana;" parent="1" vertex="1">
          <mxGeometry x="400" y="370" width="190" height="30" as="geometry" />
        </mxCell>
        <mxCell id="5zrpFRkQ7kHoa4eRrR6o-25" value="" style="endArrow=open;html=1;rounded=0;dashed=1;fontFamily=Verdana;fontSize=20;strokeWidth=2;endFill=0;" parent="1" edge="1">
          <mxGeometry width="50" height="50" relative="1" as="geometry">
            <mxPoint x="148" y="258" as="sourcePoint" />
            <mxPoint x="190" y="258" as="targetPoint" />
          </mxGeometry>
        </mxCell>
        <mxCell id="5zrpFRkQ7kHoa4eRrR6o-26" value="" style="endArrow=open;html=1;rounded=0;dashed=1;fontFamily=Verdana;fontSize=20;strokeWidth=2;endFill=0;" parent="1" edge="1">
          <mxGeometry width="50" height="50" relative="1" as="geometry">
            <mxPoint x="360" y="258" as="sourcePoint" />
            <mxPoint x="402" y="258" as="targetPoint" />
          </mxGeometry>
        </mxCell>
        <mxCell id="5zrpFRkQ7kHoa4eRrR6o-28" value="" style="endArrow=open;html=1;rounded=0;dashed=1;fontFamily=Verdana;fontSize=20;strokeWidth=2;endFill=0;" parent="1" edge="1">
          <mxGeometry width="50" height="50" relative="1" as="geometry">
            <mxPoint x="484" y="258" as="sourcePoint" />
            <mxPoint x="526" y="258" as="targetPoint" />
          </mxGeometry>
        </mxCell>
        <mxCell id="5zrpFRkQ7kHoa4eRrR6o-29" value="" style="endArrow=open;html=1;rounded=0;dashed=1;fontFamily=Verdana;fontSize=20;strokeWidth=2;endFill=0;" parent="1" edge="1">
          <mxGeometry width="50" height="50" relative="1" as="geometry">
            <mxPoint x="148" y="387.5" as="sourcePoint" />
            <mxPoint x="190" y="387.5" as="targetPoint" />
          </mxGeometry>
        </mxCell>
        <mxCell id="5zrpFRkQ7kHoa4eRrR6o-30" value="" style="endArrow=open;html=1;rounded=0;dashed=1;fontFamily=Verdana;fontSize=20;strokeWidth=2;endFill=0;" parent="1" edge="1">
          <mxGeometry width="50" height="50" relative="1" as="geometry">
            <mxPoint x="358" y="387.5" as="sourcePoint" />
            <mxPoint x="400" y="387.5" as="targetPoint" />
          </mxGeometry>
        </mxCell>
        <mxCell id="5zrpFRkQ7kHoa4eRrR6o-35" value="&lt;font color=&quot;#3399ff&quot;&gt;易失区&lt;/font&gt;" style="text;html=1;strokeColor=none;fillColor=none;align=center;verticalAlign=middle;whiteSpace=wrap;rounded=0;dashed=1;fontFamily=Verdana;fontSize=20;" parent="1" vertex="1">
          <mxGeometry x="60" y="190" width="70" height="30" as="geometry" />
        </mxCell>
        <mxCell id="5zrpFRkQ7kHoa4eRrR6o-36" value="&lt;font color=&quot;#ff3333&quot;&gt;非易失区&lt;/font&gt;" style="text;html=1;strokeColor=none;fillColor=none;align=center;verticalAlign=middle;whiteSpace=wrap;rounded=0;dashed=1;fontFamily=Verdana;fontSize=20;" parent="1" vertex="1">
          <mxGeometry x="500" y="190" width="90" height="30" as="geometry" />
        </mxCell>
        <mxCell id="5zrpFRkQ7kHoa4eRrR6o-38" value="" style="curved=1;endArrow=classic;html=1;rounded=0;fontFamily=Verdana;fontSize=20;fontColor=#3399FF;strokeWidth=2;exitX=0.5;exitY=1;exitDx=0;exitDy=0;strokeColor=#3333FF;" parent="1" source="5zrpFRkQ7kHoa4eRrR6o-2" edge="1">
          <mxGeometry width="50" height="50" relative="1" as="geometry">
            <mxPoint x="370" y="340" as="sourcePoint" />
            <mxPoint x="560" y="290" as="targetPoint" />
            <Array as="points">
              <mxPoint x="370" y="330" />
            </Array>
          </mxGeometry>
        </mxCell>
        <mxCell id="5zrpFRkQ7kHoa4eRrR6o-41" value="&lt;font color=&quot;#000000&quot; style=&quot;font-size: 16px&quot;&gt;fsync()&lt;/font&gt;" style="text;html=1;strokeColor=none;fillColor=none;align=center;verticalAlign=middle;whiteSpace=wrap;rounded=0;dashed=1;fontFamily=Verdana;fontSize=20;fontColor=#3399FF;" parent="1" vertex="1">
          <mxGeometry x="414" y="310" height="16" as="geometry" />
        </mxCell>
        <mxCell id="5zrpFRkQ7kHoa4eRrR6o-42" value="" style="curved=1;endArrow=classic;html=1;rounded=0;fontFamily=Verdana;fontSize=20;fontColor=#3399FF;strokeWidth=2;exitX=0.5;exitY=1;exitDx=0;exitDy=0;strokeColor=#3333FF;" parent="1" edge="1">
          <mxGeometry width="50" height="50" relative="1" as="geometry">
            <mxPoint x="226" y="420" as="sourcePoint" />
            <mxPoint x="496" y="420" as="targetPoint" />
            <Array as="points">
              <mxPoint x="321" y="470" />
            </Array>
          </mxGeometry>
        </mxCell>
        <mxCell id="5zrpFRkQ7kHoa4eRrR6o-45" value="&lt;font style=&quot;font-size: 16px&quot;&gt;Cacheline刷新指令&lt;/font&gt;" style="text;html=1;align=center;verticalAlign=middle;resizable=0;points=[];autosize=1;strokeColor=none;fillColor=none;fontSize=20;fontFamily=Verdana;fontColor=#000000;" parent="1" vertex="1">
          <mxGeometry x="290" y="450" width="160" height="30" as="geometry" />
        </mxCell>
      </root>
    </mxGraphModel>
  </diagram>
  <diagram id="Pj8IM52IryMDta_mhuNu" name="崩溃一致性">
    <mxGraphModel dx="1426" dy="737" grid="1" gridSize="10" guides="1" tooltips="1" connect="1" arrows="1" fold="1" page="1" pageScale="1" pageWidth="827" pageHeight="1169" math="0" shadow="0">
      <root>
        <mxCell id="n3IPYMkW3FswiVkDdOIX-0" />
        <mxCell id="n3IPYMkW3FswiVkDdOIX-1" parent="n3IPYMkW3FswiVkDdOIX-0" />
        <mxCell id="n3IPYMkW3FswiVkDdOIX-4" value="" style="rounded=0;whiteSpace=wrap;html=1;fontFamily=Verdana;fontSize=16;fontColor=#000000;strokeColor=#000000;strokeWidth=2;fillColor=#FFFFFF;" parent="n3IPYMkW3FswiVkDdOIX-1" vertex="1">
          <mxGeometry x="160" y="415" width="420" height="170" as="geometry" />
        </mxCell>
        <mxCell id="n3IPYMkW3FswiVkDdOIX-5" value="PM" style="text;html=1;strokeColor=none;fillColor=none;align=center;verticalAlign=middle;whiteSpace=wrap;rounded=0;fontFamily=Verdana;fontSize=16;fontColor=#000000;" parent="n3IPYMkW3FswiVkDdOIX-1" vertex="1">
          <mxGeometry x="350" y="590" width="60" height="30" as="geometry" />
        </mxCell>
        <mxCell id="n3IPYMkW3FswiVkDdOIX-6" value="&lt;span style=&quot;font-size: 20px&quot;&gt;abcdefghjik&lt;/span&gt;" style="rounded=0;whiteSpace=wrap;html=1;fontFamily=Verdana;fontSize=16;strokeColor=#000000;strokeWidth=2;fillColor=#f8cecc;" parent="n3IPYMkW3FswiVkDdOIX-1" vertex="1">
          <mxGeometry x="250" y="230" width="130" height="60" as="geometry" />
        </mxCell>
        <mxCell id="n3IPYMkW3FswiVkDdOIX-7" value="&lt;font style=&quot;font-size: 20px&quot;&gt;abcdefghjik&lt;/font&gt;" style="rounded=0;whiteSpace=wrap;html=1;fontFamily=Verdana;fontSize=16;strokeColor=#000000;strokeWidth=2;fillColor=#d5e8d4;" parent="n3IPYMkW3FswiVkDdOIX-1" vertex="1">
          <mxGeometry x="380" y="230" width="130" height="60" as="geometry" />
        </mxCell>
        <mxCell id="n3IPYMkW3FswiVkDdOIX-12" value="key" style="text;html=1;align=center;verticalAlign=middle;resizable=0;points=[];autosize=1;strokeColor=none;fillColor=none;fontSize=16;fontFamily=Verdana;fontColor=#000000;" parent="n3IPYMkW3FswiVkDdOIX-1" vertex="1">
          <mxGeometry x="290" y="200" width="40" height="20" as="geometry" />
        </mxCell>
        <mxCell id="n3IPYMkW3FswiVkDdOIX-13" value="value" style="text;html=1;align=center;verticalAlign=middle;resizable=0;points=[];autosize=1;strokeColor=none;fillColor=none;fontSize=16;fontFamily=Verdana;fontColor=#000000;" parent="n3IPYMkW3FswiVkDdOIX-1" vertex="1">
          <mxGeometry x="410" y="200" width="60" height="20" as="geometry" />
        </mxCell>
        <mxCell id="n3IPYMkW3FswiVkDdOIX-14" value="&lt;span style=&quot;font-size: 20px&quot;&gt;abcdefghjik&lt;/span&gt;" style="rounded=0;whiteSpace=wrap;html=1;fontFamily=Verdana;fontSize=16;strokeColor=#36393d;strokeWidth=2;fillColor=#ffcccc;" parent="n3IPYMkW3FswiVkDdOIX-1" vertex="1">
          <mxGeometry x="250" y="470" width="130" height="60" as="geometry" />
        </mxCell>
        <mxCell id="n3IPYMkW3FswiVkDdOIX-15" value="&lt;font style=&quot;font-size: 20px&quot;&gt;abcde&lt;/font&gt;" style="rounded=0;whiteSpace=wrap;html=1;fontFamily=Verdana;fontSize=16;strokeColor=#000000;strokeWidth=2;fillColor=#d5e8d4;" parent="n3IPYMkW3FswiVkDdOIX-1" vertex="1">
          <mxGeometry x="380" y="470" width="130" height="60" as="geometry" />
        </mxCell>
        <mxCell id="n3IPYMkW3FswiVkDdOIX-16" value="" style="shape=flexArrow;endArrow=classic;html=1;rounded=0;fontFamily=Verdana;fontSize=20;fontColor=#000000;strokeColor=#3333FF;strokeWidth=2;" parent="n3IPYMkW3FswiVkDdOIX-1" edge="1">
          <mxGeometry width="50" height="50" relative="1" as="geometry">
            <mxPoint x="379" y="300" as="sourcePoint" />
            <mxPoint x="379" y="400" as="targetPoint" />
          </mxGeometry>
        </mxCell>
        <mxCell id="n3IPYMkW3FswiVkDdOIX-18" value="&lt;font color=&quot;#ff3333&quot;&gt;Crash&lt;/font&gt;" style="text;html=1;align=center;verticalAlign=middle;resizable=0;points=[];autosize=1;strokeColor=none;fillColor=none;fontSize=20;fontFamily=Verdana;fontColor=#000000;" parent="n3IPYMkW3FswiVkDdOIX-1" vertex="1">
          <mxGeometry x="400" y="340" width="70" height="30" as="geometry" />
        </mxCell>
      </root>
    </mxGraphModel>
  </diagram>
  <diagram id="Yk5mI3Tx9sz-DAOnuExQ" name="整体方案设计">
    <mxGraphModel dx="2015" dy="614" grid="1" gridSize="10" guides="1" tooltips="1" connect="1" arrows="1" fold="1" page="1" pageScale="1" pageWidth="827" pageHeight="1169" math="0" shadow="0">
      <root>
        <mxCell id="UIxMZkgykjUtvHOcaM9F-0" />
        <mxCell id="UIxMZkgykjUtvHOcaM9F-1" parent="UIxMZkgykjUtvHOcaM9F-0" />
        <mxCell id="UIxMZkgykjUtvHOcaM9F-2" value="" style="rounded=0;whiteSpace=wrap;html=1;strokeColor=#000000;strokeWidth=2;fontFamily=Times New Roman;" vertex="1" parent="UIxMZkgykjUtvHOcaM9F-1">
          <mxGeometry x="250" y="650" width="100" height="60" as="geometry" />
        </mxCell>
        <mxCell id="UIxMZkgykjUtvHOcaM9F-3" value="" style="rounded=0;whiteSpace=wrap;html=1;strokeColor=#36393d;strokeWidth=2;fillColor=#eeeeee;fontFamily=Times New Roman;" vertex="1" parent="UIxMZkgykjUtvHOcaM9F-1">
          <mxGeometry x="350" y="650" width="100" height="60" as="geometry" />
        </mxCell>
        <mxCell id="UIxMZkgykjUtvHOcaM9F-4" value="" style="rounded=0;whiteSpace=wrap;html=1;strokeColor=#000000;strokeWidth=2;fontFamily=Times New Roman;" vertex="1" parent="UIxMZkgykjUtvHOcaM9F-1">
          <mxGeometry x="450" y="650" width="100" height="60" as="geometry" />
        </mxCell>
        <mxCell id="UIxMZkgykjUtvHOcaM9F-5" value="" style="rounded=0;whiteSpace=wrap;html=1;strokeColor=#000000;strokeWidth=2;fontFamily=Times New Roman;" vertex="1" parent="UIxMZkgykjUtvHOcaM9F-1">
          <mxGeometry x="550" y="650" width="100" height="60" as="geometry" />
        </mxCell>
        <mxCell id="UIxMZkgykjUtvHOcaM9F-6" value="" style="rounded=0;whiteSpace=wrap;html=1;strokeColor=#000000;strokeWidth=2;fontFamily=Times New Roman;" vertex="1" parent="UIxMZkgykjUtvHOcaM9F-1">
          <mxGeometry x="650" y="650" width="120" height="60" as="geometry" />
        </mxCell>
        <mxCell id="UIxMZkgykjUtvHOcaM9F-7" value="" style="rounded=0;whiteSpace=wrap;html=1;strokeColor=#000000;strokeWidth=2;fontFamily=Times New Roman;" vertex="1" parent="UIxMZkgykjUtvHOcaM9F-1">
          <mxGeometry x="770" y="650" width="100" height="60" as="geometry" />
        </mxCell>
        <mxCell id="UIxMZkgykjUtvHOcaM9F-8" value="" style="rounded=0;whiteSpace=wrap;html=1;strokeColor=#000000;strokeWidth=2;fontFamily=Times New Roman;" vertex="1" parent="UIxMZkgykjUtvHOcaM9F-1">
          <mxGeometry x="870" y="650" width="100" height="60" as="geometry" />
        </mxCell>
        <mxCell id="UIxMZkgykjUtvHOcaM9F-9" value="" style="rounded=0;whiteSpace=wrap;html=1;strokeColor=#000000;strokeWidth=2;fontFamily=Times New Roman;" vertex="1" parent="UIxMZkgykjUtvHOcaM9F-1">
          <mxGeometry x="970" y="650" width="100" height="60" as="geometry" />
        </mxCell>
        <mxCell id="UIxMZkgykjUtvHOcaM9F-12" value="&lt;font style=&quot;font-size: 20px&quot;&gt;......&lt;/font&gt;" style="text;html=1;strokeColor=none;fillColor=none;align=center;verticalAlign=middle;whiteSpace=wrap;rounded=0;strokeWidth=2;fontFamily=Times New Roman;" vertex="1" parent="UIxMZkgykjUtvHOcaM9F-1">
          <mxGeometry x="670" y="665" width="60" height="30" as="geometry" />
        </mxCell>
        <mxCell id="UIxMZkgykjUtvHOcaM9F-13" value="" style="rounded=0;whiteSpace=wrap;html=1;fontSize=20;strokeColor=#000000;strokeWidth=2;fontFamily=Times New Roman;" vertex="1" parent="UIxMZkgykjUtvHOcaM9F-1">
          <mxGeometry x="180" y="170" width="120" height="30" as="geometry" />
        </mxCell>
        <mxCell id="UIxMZkgykjUtvHOcaM9F-14" value="" style="rounded=0;whiteSpace=wrap;html=1;fontSize=20;strokeColor=#000000;strokeWidth=2;fontFamily=Times New Roman;" vertex="1" parent="UIxMZkgykjUtvHOcaM9F-1">
          <mxGeometry x="300" y="170" width="120" height="30" as="geometry" />
        </mxCell>
        <mxCell id="UIxMZkgykjUtvHOcaM9F-15" value="" style="rounded=0;whiteSpace=wrap;html=1;fontSize=20;strokeColor=#000000;strokeWidth=2;fontFamily=Times New Roman;" vertex="1" parent="UIxMZkgykjUtvHOcaM9F-1">
          <mxGeometry x="420" y="170" width="120" height="30" as="geometry" />
        </mxCell>
        <mxCell id="UIxMZkgykjUtvHOcaM9F-16" value="" style="rounded=0;whiteSpace=wrap;html=1;fontSize=20;strokeColor=#000000;strokeWidth=2;fontFamily=Times New Roman;" vertex="1" parent="UIxMZkgykjUtvHOcaM9F-1">
          <mxGeometry x="540" y="170" width="120" height="30" as="geometry" />
        </mxCell>
        <mxCell id="UIxMZkgykjUtvHOcaM9F-17" value="" style="rounded=0;whiteSpace=wrap;html=1;fontSize=20;strokeColor=#36393d;strokeWidth=2;fillColor=#eeeeee;fontFamily=Times New Roman;" vertex="1" parent="UIxMZkgykjUtvHOcaM9F-1">
          <mxGeometry x="180" y="200" width="120" height="30" as="geometry" />
        </mxCell>
        <mxCell id="UIxMZkgykjUtvHOcaM9F-18" value="" style="rounded=0;whiteSpace=wrap;html=1;fontSize=20;strokeColor=#36393d;strokeWidth=2;fillColor=#eeeeee;fontFamily=Times New Roman;" vertex="1" parent="UIxMZkgykjUtvHOcaM9F-1">
          <mxGeometry x="300" y="200" width="120" height="30" as="geometry" />
        </mxCell>
        <mxCell id="UIxMZkgykjUtvHOcaM9F-19" value="" style="rounded=0;whiteSpace=wrap;html=1;fontSize=20;strokeColor=#36393d;strokeWidth=2;fillColor=#eeeeee;fontFamily=Times New Roman;" vertex="1" parent="UIxMZkgykjUtvHOcaM9F-1">
          <mxGeometry x="420" y="200" width="120" height="30" as="geometry" />
        </mxCell>
        <mxCell id="UIxMZkgykjUtvHOcaM9F-20" value="" style="rounded=0;whiteSpace=wrap;html=1;fontSize=20;strokeColor=#36393d;strokeWidth=2;fillColor=#eeeeee;fontFamily=Times New Roman;" vertex="1" parent="UIxMZkgykjUtvHOcaM9F-1">
          <mxGeometry x="540" y="200" width="120" height="30" as="geometry" />
        </mxCell>
        <mxCell id="UIxMZkgykjUtvHOcaM9F-21" value="" style="rounded=0;whiteSpace=wrap;html=1;fontSize=20;strokeColor=#000000;strokeWidth=2;fontFamily=Times New Roman;" vertex="1" parent="UIxMZkgykjUtvHOcaM9F-1">
          <mxGeometry x="180" y="230" width="120" height="30" as="geometry" />
        </mxCell>
        <mxCell id="UIxMZkgykjUtvHOcaM9F-22" value="" style="rounded=0;whiteSpace=wrap;html=1;fontSize=20;strokeColor=#000000;strokeWidth=2;fontFamily=Times New Roman;" vertex="1" parent="UIxMZkgykjUtvHOcaM9F-1">
          <mxGeometry x="300" y="230" width="120" height="30" as="geometry" />
        </mxCell>
        <mxCell id="UIxMZkgykjUtvHOcaM9F-23" value="" style="rounded=0;whiteSpace=wrap;html=1;fontSize=20;strokeColor=#000000;strokeWidth=2;fontFamily=Times New Roman;" vertex="1" parent="UIxMZkgykjUtvHOcaM9F-1">
          <mxGeometry x="420" y="230" width="120" height="30" as="geometry" />
        </mxCell>
        <mxCell id="UIxMZkgykjUtvHOcaM9F-24" value="" style="rounded=0;whiteSpace=wrap;html=1;fontSize=20;strokeColor=#000000;strokeWidth=2;fontFamily=Times New Roman;" vertex="1" parent="UIxMZkgykjUtvHOcaM9F-1">
          <mxGeometry x="540" y="230" width="120" height="30" as="geometry" />
        </mxCell>
        <mxCell id="UIxMZkgykjUtvHOcaM9F-25" value="" style="rounded=0;whiteSpace=wrap;html=1;fontSize=20;strokeColor=#36393d;strokeWidth=2;fillColor=#eeeeee;fontFamily=Times New Roman;" vertex="1" parent="UIxMZkgykjUtvHOcaM9F-1">
          <mxGeometry x="180" y="260" width="120" height="30" as="geometry" />
        </mxCell>
        <mxCell id="UIxMZkgykjUtvHOcaM9F-26" value="" style="rounded=0;whiteSpace=wrap;html=1;fontSize=20;strokeColor=#36393d;strokeWidth=2;fillColor=#eeeeee;fontFamily=Times New Roman;" vertex="1" parent="UIxMZkgykjUtvHOcaM9F-1">
          <mxGeometry x="300" y="260" width="120" height="30" as="geometry" />
        </mxCell>
        <mxCell id="UIxMZkgykjUtvHOcaM9F-27" value="" style="rounded=0;whiteSpace=wrap;html=1;fontSize=20;strokeColor=#36393d;strokeWidth=2;fillColor=#eeeeee;fontFamily=Times New Roman;" vertex="1" parent="UIxMZkgykjUtvHOcaM9F-1">
          <mxGeometry x="420" y="260" width="120" height="30" as="geometry" />
        </mxCell>
        <mxCell id="UIxMZkgykjUtvHOcaM9F-28" value="" style="rounded=0;whiteSpace=wrap;html=1;fontSize=20;strokeColor=#36393d;strokeWidth=2;fillColor=#eeeeee;fontFamily=Times New Roman;" vertex="1" parent="UIxMZkgykjUtvHOcaM9F-1">
          <mxGeometry x="540" y="260" width="120" height="30" as="geometry" />
        </mxCell>
        <mxCell id="UIxMZkgykjUtvHOcaM9F-29" value="" style="rounded=0;whiteSpace=wrap;html=1;fontSize=20;strokeColor=#000000;strokeWidth=2;fontFamily=Times New Roman;" vertex="1" parent="UIxMZkgykjUtvHOcaM9F-1">
          <mxGeometry x="180" y="290" width="120" height="30" as="geometry" />
        </mxCell>
        <mxCell id="UIxMZkgykjUtvHOcaM9F-30" value="" style="rounded=0;whiteSpace=wrap;html=1;fontSize=20;strokeColor=#000000;strokeWidth=2;fontFamily=Times New Roman;" vertex="1" parent="UIxMZkgykjUtvHOcaM9F-1">
          <mxGeometry x="300" y="290" width="120" height="30" as="geometry" />
        </mxCell>
        <mxCell id="UIxMZkgykjUtvHOcaM9F-31" value="" style="rounded=0;whiteSpace=wrap;html=1;fontSize=20;strokeColor=#000000;strokeWidth=2;fontFamily=Times New Roman;" vertex="1" parent="UIxMZkgykjUtvHOcaM9F-1">
          <mxGeometry x="420" y="290" width="120" height="30" as="geometry" />
        </mxCell>
        <mxCell id="UIxMZkgykjUtvHOcaM9F-32" value="" style="rounded=0;whiteSpace=wrap;html=1;fontSize=20;strokeColor=#000000;strokeWidth=2;fontFamily=Times New Roman;" vertex="1" parent="UIxMZkgykjUtvHOcaM9F-1">
          <mxGeometry x="540" y="290" width="120" height="30" as="geometry" />
        </mxCell>
        <mxCell id="UIxMZkgykjUtvHOcaM9F-33" value="" style="rounded=0;whiteSpace=wrap;html=1;fontSize=20;strokeColor=#36393d;strokeWidth=2;fillColor=#eeeeee;fontFamily=Times New Roman;" vertex="1" parent="UIxMZkgykjUtvHOcaM9F-1">
          <mxGeometry x="180" y="320" width="120" height="30" as="geometry" />
        </mxCell>
        <mxCell id="UIxMZkgykjUtvHOcaM9F-34" value="" style="rounded=0;whiteSpace=wrap;html=1;fontSize=20;strokeColor=#36393d;strokeWidth=2;fillColor=#eeeeee;fontFamily=Times New Roman;" vertex="1" parent="UIxMZkgykjUtvHOcaM9F-1">
          <mxGeometry x="300" y="320" width="120" height="30" as="geometry" />
        </mxCell>
        <mxCell id="UIxMZkgykjUtvHOcaM9F-35" value="" style="rounded=0;whiteSpace=wrap;html=1;fontSize=20;strokeColor=#36393d;strokeWidth=2;fillColor=#eeeeee;fontFamily=Times New Roman;" vertex="1" parent="UIxMZkgykjUtvHOcaM9F-1">
          <mxGeometry x="420" y="320" width="120" height="30" as="geometry" />
        </mxCell>
        <mxCell id="UIxMZkgykjUtvHOcaM9F-36" value="" style="rounded=0;whiteSpace=wrap;html=1;fontSize=20;strokeColor=#36393d;strokeWidth=2;fillColor=#eeeeee;fontFamily=Times New Roman;" vertex="1" parent="UIxMZkgykjUtvHOcaM9F-1">
          <mxGeometry x="540" y="320" width="120" height="30" as="geometry" />
        </mxCell>
        <mxCell id="UIxMZkgykjUtvHOcaM9F-37" value="" style="rounded=0;whiteSpace=wrap;html=1;fontSize=20;strokeColor=#000000;strokeWidth=2;fontFamily=Times New Roman;" vertex="1" parent="UIxMZkgykjUtvHOcaM9F-1">
          <mxGeometry x="180" y="350" width="120" height="30" as="geometry" />
        </mxCell>
        <mxCell id="UIxMZkgykjUtvHOcaM9F-38" value="" style="rounded=0;whiteSpace=wrap;html=1;fontSize=20;strokeColor=#000000;strokeWidth=2;fontFamily=Times New Roman;" vertex="1" parent="UIxMZkgykjUtvHOcaM9F-1">
          <mxGeometry x="300" y="350" width="120" height="30" as="geometry" />
        </mxCell>
        <mxCell id="UIxMZkgykjUtvHOcaM9F-39" value="" style="rounded=0;whiteSpace=wrap;html=1;fontSize=20;strokeColor=#000000;strokeWidth=2;fontFamily=Times New Roman;" vertex="1" parent="UIxMZkgykjUtvHOcaM9F-1">
          <mxGeometry x="420" y="350" width="120" height="30" as="geometry" />
        </mxCell>
        <mxCell id="UIxMZkgykjUtvHOcaM9F-40" value="" style="rounded=0;whiteSpace=wrap;html=1;fontSize=20;strokeColor=#000000;strokeWidth=2;fontFamily=Times New Roman;" vertex="1" parent="UIxMZkgykjUtvHOcaM9F-1">
          <mxGeometry x="540" y="350" width="120" height="30" as="geometry" />
        </mxCell>
        <mxCell id="UIxMZkgykjUtvHOcaM9F-41" value="" style="rounded=0;whiteSpace=wrap;html=1;fontSize=20;strokeColor=#36393d;strokeWidth=2;fillColor=#eeeeee;fontFamily=Times New Roman;" vertex="1" parent="UIxMZkgykjUtvHOcaM9F-1">
          <mxGeometry x="180" y="380" width="120" height="30" as="geometry" />
        </mxCell>
        <mxCell id="UIxMZkgykjUtvHOcaM9F-42" value="" style="rounded=0;whiteSpace=wrap;html=1;fontSize=20;strokeColor=#36393d;strokeWidth=2;fillColor=#eeeeee;fontFamily=Times New Roman;" vertex="1" parent="UIxMZkgykjUtvHOcaM9F-1">
          <mxGeometry x="300" y="380" width="120" height="30" as="geometry" />
        </mxCell>
        <mxCell id="UIxMZkgykjUtvHOcaM9F-43" value="" style="rounded=0;whiteSpace=wrap;html=1;fontSize=20;strokeColor=#36393d;strokeWidth=2;fillColor=#eeeeee;fontFamily=Times New Roman;" vertex="1" parent="UIxMZkgykjUtvHOcaM9F-1">
          <mxGeometry x="420" y="380" width="120" height="30" as="geometry" />
        </mxCell>
        <mxCell id="UIxMZkgykjUtvHOcaM9F-44" value="" style="rounded=0;whiteSpace=wrap;html=1;fontSize=20;strokeColor=#36393d;strokeWidth=2;fillColor=#eeeeee;fontFamily=Times New Roman;" vertex="1" parent="UIxMZkgykjUtvHOcaM9F-1">
          <mxGeometry x="540" y="380" width="120" height="30" as="geometry" />
        </mxCell>
        <mxCell id="UIxMZkgykjUtvHOcaM9F-45" value="" style="rounded=0;whiteSpace=wrap;html=1;fontSize=20;strokeColor=#000000;strokeWidth=2;fontFamily=Times New Roman;" vertex="1" parent="UIxMZkgykjUtvHOcaM9F-1">
          <mxGeometry x="180" y="410" width="120" height="30" as="geometry" />
        </mxCell>
        <mxCell id="UIxMZkgykjUtvHOcaM9F-46" value="" style="rounded=0;whiteSpace=wrap;html=1;fontSize=20;strokeColor=#000000;strokeWidth=2;fontFamily=Times New Roman;" vertex="1" parent="UIxMZkgykjUtvHOcaM9F-1">
          <mxGeometry x="300" y="410" width="120" height="30" as="geometry" />
        </mxCell>
        <mxCell id="UIxMZkgykjUtvHOcaM9F-47" value="" style="rounded=0;whiteSpace=wrap;html=1;fontSize=20;strokeColor=#000000;strokeWidth=2;fontFamily=Times New Roman;" vertex="1" parent="UIxMZkgykjUtvHOcaM9F-1">
          <mxGeometry x="420" y="410" width="120" height="30" as="geometry" />
        </mxCell>
        <mxCell id="UIxMZkgykjUtvHOcaM9F-48" value="" style="rounded=0;whiteSpace=wrap;html=1;fontSize=20;strokeColor=#000000;strokeWidth=2;fontFamily=Times New Roman;" vertex="1" parent="UIxMZkgykjUtvHOcaM9F-1">
          <mxGeometry x="540" y="410" width="120" height="30" as="geometry" />
        </mxCell>
        <mxCell id="UIxMZkgykjUtvHOcaM9F-49" value="" style="rounded=0;whiteSpace=wrap;html=1;fontSize=20;strokeColor=#36393d;strokeWidth=2;fillColor=#eeeeee;fontFamily=Times New Roman;" vertex="1" parent="UIxMZkgykjUtvHOcaM9F-1">
          <mxGeometry x="180" y="440" width="120" height="30" as="geometry" />
        </mxCell>
        <mxCell id="UIxMZkgykjUtvHOcaM9F-50" value="" style="rounded=0;whiteSpace=wrap;html=1;fontSize=20;strokeColor=#36393d;strokeWidth=2;fillColor=#eeeeee;fontFamily=Times New Roman;" vertex="1" parent="UIxMZkgykjUtvHOcaM9F-1">
          <mxGeometry x="300" y="440" width="120" height="30" as="geometry" />
        </mxCell>
        <mxCell id="UIxMZkgykjUtvHOcaM9F-51" value="" style="rounded=0;whiteSpace=wrap;html=1;fontSize=20;strokeColor=#36393d;strokeWidth=2;fillColor=#eeeeee;fontFamily=Times New Roman;" vertex="1" parent="UIxMZkgykjUtvHOcaM9F-1">
          <mxGeometry x="420" y="440" width="120" height="30" as="geometry" />
        </mxCell>
        <mxCell id="UIxMZkgykjUtvHOcaM9F-52" value="" style="rounded=0;whiteSpace=wrap;html=1;fontSize=20;strokeColor=#36393d;strokeWidth=2;fillColor=#eeeeee;fontFamily=Times New Roman;" vertex="1" parent="UIxMZkgykjUtvHOcaM9F-1">
          <mxGeometry x="540" y="440" width="120" height="30" as="geometry" />
        </mxCell>
        <mxCell id="UIxMZkgykjUtvHOcaM9F-53" value="" style="rounded=0;whiteSpace=wrap;html=1;fontSize=20;strokeColor=#000000;strokeWidth=2;fontFamily=Times New Roman;" vertex="1" parent="UIxMZkgykjUtvHOcaM9F-1">
          <mxGeometry x="180" y="470" width="120" height="30" as="geometry" />
        </mxCell>
        <mxCell id="UIxMZkgykjUtvHOcaM9F-54" value="" style="rounded=0;whiteSpace=wrap;html=1;fontSize=20;strokeColor=#000000;strokeWidth=2;fontFamily=Times New Roman;" vertex="1" parent="UIxMZkgykjUtvHOcaM9F-1">
          <mxGeometry x="300" y="470" width="120" height="30" as="geometry" />
        </mxCell>
        <mxCell id="UIxMZkgykjUtvHOcaM9F-55" value="" style="rounded=0;whiteSpace=wrap;html=1;fontSize=20;strokeColor=#000000;strokeWidth=2;fontFamily=Times New Roman;" vertex="1" parent="UIxMZkgykjUtvHOcaM9F-1">
          <mxGeometry x="420" y="470" width="120" height="30" as="geometry" />
        </mxCell>
        <mxCell id="UIxMZkgykjUtvHOcaM9F-56" value="" style="rounded=0;whiteSpace=wrap;html=1;fontSize=20;strokeColor=#000000;strokeWidth=2;fontFamily=Times New Roman;" vertex="1" parent="UIxMZkgykjUtvHOcaM9F-1">
          <mxGeometry x="540" y="470" width="120" height="30" as="geometry" />
        </mxCell>
        <mxCell id="UIxMZkgykjUtvHOcaM9F-57" value="" style="rounded=0;whiteSpace=wrap;html=1;fontSize=20;strokeColor=#36393d;strokeWidth=2;fillColor=#eeeeee;fontFamily=Times New Roman;" vertex="1" parent="UIxMZkgykjUtvHOcaM9F-1">
          <mxGeometry x="180" y="500" width="120" height="30" as="geometry" />
        </mxCell>
        <mxCell id="UIxMZkgykjUtvHOcaM9F-58" value="" style="rounded=0;whiteSpace=wrap;html=1;fontSize=20;strokeColor=#36393d;strokeWidth=2;fillColor=#eeeeee;fontFamily=Times New Roman;" vertex="1" parent="UIxMZkgykjUtvHOcaM9F-1">
          <mxGeometry x="300" y="500" width="120" height="30" as="geometry" />
        </mxCell>
        <mxCell id="UIxMZkgykjUtvHOcaM9F-59" value="" style="rounded=0;whiteSpace=wrap;html=1;fontSize=20;strokeColor=#36393d;strokeWidth=2;fillColor=#eeeeee;fontFamily=Times New Roman;" vertex="1" parent="UIxMZkgykjUtvHOcaM9F-1">
          <mxGeometry x="420" y="500" width="120" height="30" as="geometry" />
        </mxCell>
        <mxCell id="UIxMZkgykjUtvHOcaM9F-60" value="" style="rounded=0;whiteSpace=wrap;html=1;fontSize=20;strokeColor=#36393d;strokeWidth=2;fillColor=#eeeeee;fontFamily=Times New Roman;" vertex="1" parent="UIxMZkgykjUtvHOcaM9F-1">
          <mxGeometry x="540" y="500" width="120" height="30" as="geometry" />
        </mxCell>
        <mxCell id="UIxMZkgykjUtvHOcaM9F-61" value="&lt;font style=&quot;font-size: 16px&quot;&gt;Bucket 0&lt;/font&gt;" style="text;html=1;align=center;verticalAlign=middle;resizable=0;points=[];autosize=1;strokeColor=none;fillColor=none;fontSize=20;fontFamily=Times New Roman;" vertex="1" parent="UIxMZkgykjUtvHOcaM9F-1">
          <mxGeometry x="670" y="170" width="70" height="30" as="geometry" />
        </mxCell>
        <mxCell id="UIxMZkgykjUtvHOcaM9F-63" value="......" style="text;html=1;strokeColor=none;fillColor=none;align=center;verticalAlign=middle;whiteSpace=wrap;rounded=0;fontSize=16;fontFamily=Times New Roman;" vertex="1" parent="UIxMZkgykjUtvHOcaM9F-1">
          <mxGeometry x="665" y="260" width="60" height="30" as="geometry" />
        </mxCell>
        <mxCell id="UIxMZkgykjUtvHOcaM9F-64" value="Bucket 5" style="text;html=1;strokeColor=none;fillColor=none;align=center;verticalAlign=middle;whiteSpace=wrap;rounded=0;fontSize=16;fontFamily=Times New Roman;" vertex="1" parent="UIxMZkgykjUtvHOcaM9F-1">
          <mxGeometry x="672.5" y="320" width="65" height="30" as="geometry" />
        </mxCell>
        <mxCell id="UIxMZkgykjUtvHOcaM9F-65" value="......" style="text;html=1;strokeColor=none;fillColor=none;align=center;verticalAlign=middle;whiteSpace=wrap;rounded=0;fontSize=16;fontFamily=Times New Roman;" vertex="1" parent="UIxMZkgykjUtvHOcaM9F-1">
          <mxGeometry x="665" y="380" width="60" height="30" as="geometry" />
        </mxCell>
        <mxCell id="UIxMZkgykjUtvHOcaM9F-66" value="......" style="text;html=1;strokeColor=none;fillColor=none;align=center;verticalAlign=middle;whiteSpace=wrap;rounded=0;fontSize=16;fontFamily=Times New Roman;" vertex="1" parent="UIxMZkgykjUtvHOcaM9F-1">
          <mxGeometry x="665" y="440" width="60" height="30" as="geometry" />
        </mxCell>
        <mxCell id="UIxMZkgykjUtvHOcaM9F-67" value="&lt;font style=&quot;font-size: 16px&quot;&gt;Bucket 11&lt;/font&gt;" style="text;html=1;align=center;verticalAlign=middle;resizable=0;points=[];autosize=1;strokeColor=none;fillColor=none;fontSize=20;fontFamily=Times New Roman;" vertex="1" parent="UIxMZkgykjUtvHOcaM9F-1">
          <mxGeometry x="665" y="500" width="80" height="30" as="geometry" />
        </mxCell>
        <mxCell id="UIxMZkgykjUtvHOcaM9F-68" value="......" style="text;html=1;strokeColor=none;fillColor=none;align=center;verticalAlign=middle;whiteSpace=wrap;rounded=0;fontSize=16;fontFamily=Times New Roman;" vertex="1" parent="UIxMZkgykjUtvHOcaM9F-1">
          <mxGeometry x="665" y="200" width="60" height="30" as="geometry" />
        </mxCell>
        <mxCell id="UIxMZkgykjUtvHOcaM9F-69" value="" style="endArrow=none;dashed=1;html=1;dashPattern=1 3;strokeWidth=2;rounded=0;fontSize=16;entryX=0;entryY=1;entryDx=0;entryDy=0;exitX=0;exitY=0;exitDx=0;exitDy=0;fontFamily=Times New Roman;" edge="1" parent="UIxMZkgykjUtvHOcaM9F-1" source="UIxMZkgykjUtvHOcaM9F-3" target="UIxMZkgykjUtvHOcaM9F-57">
          <mxGeometry width="50" height="50" relative="1" as="geometry">
            <mxPoint x="270" y="640" as="sourcePoint" />
            <mxPoint x="210" y="600" as="targetPoint" />
          </mxGeometry>
        </mxCell>
        <mxCell id="UIxMZkgykjUtvHOcaM9F-71" value="" style="endArrow=none;dashed=1;html=1;dashPattern=1 3;strokeWidth=2;rounded=0;fontSize=16;entryX=1;entryY=1;entryDx=0;entryDy=0;fontFamily=Times New Roman;" edge="1" parent="UIxMZkgykjUtvHOcaM9F-1" target="UIxMZkgykjUtvHOcaM9F-60">
          <mxGeometry width="50" height="50" relative="1" as="geometry">
            <mxPoint x="380" y="650" as="sourcePoint" />
            <mxPoint x="430" y="600" as="targetPoint" />
          </mxGeometry>
        </mxCell>
        <mxCell id="UIxMZkgykjUtvHOcaM9F-72" value="&lt;font style=&quot;font-size: 18px&quot;&gt;Bucket&lt;/font&gt;" style="text;html=1;align=center;verticalAlign=middle;resizable=0;points=[];autosize=1;strokeColor=none;fillColor=none;fontSize=16;fontFamily=Times New Roman;" vertex="1" parent="UIxMZkgykjUtvHOcaM9F-1">
          <mxGeometry x="355" y="720" width="70" height="20" as="geometry" />
        </mxCell>
        <mxCell id="UIxMZkgykjUtvHOcaM9F-89" style="edgeStyle=orthogonalEdgeStyle;rounded=0;orthogonalLoop=1;jettySize=auto;html=1;exitX=0;exitY=1;exitDx=0;exitDy=0;entryX=0;entryY=0;entryDx=0;entryDy=0;fontFamily=Times New Roman;fontSize=18;dashed=1;strokeWidth=2;" edge="1" parent="UIxMZkgykjUtvHOcaM9F-1" source="UIxMZkgykjUtvHOcaM9F-73" target="UIxMZkgykjUtvHOcaM9F-75">
          <mxGeometry relative="1" as="geometry" />
        </mxCell>
        <mxCell id="UIxMZkgykjUtvHOcaM9F-73" value="&lt;font style=&quot;font-size: 18px&quot;&gt;Metadata&lt;/font&gt;" style="rounded=0;whiteSpace=wrap;html=1;fontSize=16;strokeColor=#000000;strokeWidth=2;fontFamily=Times New Roman;fillColor=#e51400;fontColor=#ffffff;" vertex="1" parent="UIxMZkgykjUtvHOcaM9F-1">
          <mxGeometry x="827" y="180" width="110" height="40" as="geometry" />
        </mxCell>
        <mxCell id="UIxMZkgykjUtvHOcaM9F-90" style="edgeStyle=orthogonalEdgeStyle;rounded=0;orthogonalLoop=1;jettySize=auto;html=1;exitX=0;exitY=1;exitDx=0;exitDy=0;entryX=1;entryY=0;entryDx=0;entryDy=0;dashed=1;fontFamily=Times New Roman;fontSize=18;curved=1;strokeWidth=2;" edge="1" parent="UIxMZkgykjUtvHOcaM9F-1" source="UIxMZkgykjUtvHOcaM9F-74" target="UIxMZkgykjUtvHOcaM9F-80">
          <mxGeometry relative="1" as="geometry" />
        </mxCell>
        <mxCell id="UIxMZkgykjUtvHOcaM9F-74" value="&lt;font style=&quot;font-size: 18px&quot;&gt;Records(key-value Pairs)&lt;/font&gt;" style="rounded=0;whiteSpace=wrap;html=1;fontSize=16;strokeColor=#000000;strokeWidth=2;fontFamily=Times New Roman;fillColor=#f5f5f5;fontColor=#333333;" vertex="1" parent="UIxMZkgykjUtvHOcaM9F-1">
          <mxGeometry x="937" y="180" width="440" height="40" as="geometry" />
        </mxCell>
        <mxCell id="UIxMZkgykjUtvHOcaM9F-75" value="&lt;font style=&quot;font-size: 18px&quot;&gt;Valid_tags&lt;/font&gt;" style="rounded=0;whiteSpace=wrap;html=1;fontSize=16;strokeColor=#000000;strokeWidth=2;fontFamily=Times New Roman;fillColor=#f8cecc;" vertex="1" parent="UIxMZkgykjUtvHOcaM9F-1">
          <mxGeometry x="827" y="280" width="113" height="40" as="geometry" />
        </mxCell>
        <mxCell id="UIxMZkgykjUtvHOcaM9F-77" value="&lt;font style=&quot;font-size: 18px&quot;&gt;Neighbor_tags&lt;/font&gt;" style="rounded=0;whiteSpace=wrap;html=1;fontSize=16;strokeColor=#000000;strokeWidth=2;fontFamily=Times New Roman;fillColor=#f8cecc;" vertex="1" parent="UIxMZkgykjUtvHOcaM9F-1">
          <mxGeometry x="937" y="280" width="133" height="40" as="geometry" />
        </mxCell>
        <mxCell id="UIxMZkgykjUtvHOcaM9F-78" value="&lt;font style=&quot;font-size: 18px&quot;&gt;Crash_tags&lt;/font&gt;" style="rounded=0;whiteSpace=wrap;html=1;fontSize=16;strokeColor=#000000;strokeWidth=2;fontFamily=Times New Roman;fillColor=#d5e8d4;" vertex="1" parent="UIxMZkgykjUtvHOcaM9F-1">
          <mxGeometry x="1070" y="280" width="120" height="40" as="geometry" />
        </mxCell>
        <mxCell id="UIxMZkgykjUtvHOcaM9F-79" value="&lt;font style=&quot;font-size: 18px&quot;&gt;move_tag&lt;/font&gt;" style="rounded=0;whiteSpace=wrap;html=1;fontSize=16;strokeColor=#000000;strokeWidth=2;fontFamily=Times New Roman;fillColor=#d5e8d4;" vertex="1" parent="UIxMZkgykjUtvHOcaM9F-1">
          <mxGeometry x="1190" y="280" width="107" height="40" as="geometry" />
        </mxCell>
        <mxCell id="UIxMZkgykjUtvHOcaM9F-80" value="&lt;span style=&quot;font-size: 18px&quot;&gt;Counter&lt;/span&gt;" style="rounded=0;whiteSpace=wrap;html=1;fontSize=16;strokeColor=#000000;strokeWidth=2;fontFamily=Times New Roman;fillColor=#fff2cc;" vertex="1" parent="UIxMZkgykjUtvHOcaM9F-1">
          <mxGeometry x="1297" y="280" width="83" height="40" as="geometry" />
        </mxCell>
        <mxCell id="UIxMZkgykjUtvHOcaM9F-81" value="&lt;font style=&quot;font-size: 18px&quot;&gt;fingerprint(1B × 14 pairs)&lt;/font&gt;" style="rounded=0;whiteSpace=wrap;html=1;fontSize=16;strokeColor=#000000;strokeWidth=2;fontFamily=Times New Roman;fillColor=#dae8fc;" vertex="1" parent="UIxMZkgykjUtvHOcaM9F-1">
          <mxGeometry x="827" y="320" width="553" height="40" as="geometry" />
        </mxCell>
        <mxCell id="UIxMZkgykjUtvHOcaM9F-86" value="&lt;font style=&quot;font-size: 18px&quot;&gt;Locations(8B)&lt;/font&gt;" style="rounded=0;whiteSpace=wrap;html=1;fontSize=16;strokeWidth=2;fontFamily=Times New Roman;" vertex="1" parent="UIxMZkgykjUtvHOcaM9F-1">
          <mxGeometry x="827" y="360" width="553" height="40" as="geometry" />
        </mxCell>
        <mxCell id="UIxMZkgykjUtvHOcaM9F-87" value="&lt;font style=&quot;font-size: 18px&quot;&gt;unused&lt;font style=&quot;font-size: 18px&quot;&gt;(2B)&lt;/font&gt;&lt;/font&gt;" style="rounded=0;whiteSpace=wrap;html=1;fontSize=16;strokeWidth=2;fontFamily=Times New Roman;fillColor=#f5f5f5;fontColor=#333333;strokeColor=#000000;" vertex="1" parent="UIxMZkgykjUtvHOcaM9F-1">
          <mxGeometry x="827" y="400" width="553" height="40" as="geometry" />
        </mxCell>
        <mxCell id="UIxMZkgykjUtvHOcaM9F-88" value="" style="endArrow=classic;html=1;rounded=0;fontFamily=Times New Roman;fontSize=18;strokeWidth=2;" edge="1" parent="UIxMZkgykjUtvHOcaM9F-1">
          <mxGeometry width="50" height="50" relative="1" as="geometry">
            <mxPoint x="745" y="184.57999999999998" as="sourcePoint" />
            <mxPoint x="815" y="184.57999999999998" as="targetPoint" />
          </mxGeometry>
        </mxCell>
        <mxCell id="MRoGSmbl9sD6vFDBAQAn-0" value="32B" style="text;html=1;strokeColor=none;fillColor=none;align=center;verticalAlign=middle;whiteSpace=wrap;rounded=0;fontFamily=Times New Roman;fontSize=18;" vertex="1" parent="UIxMZkgykjUtvHOcaM9F-1">
          <mxGeometry x="852" y="150" width="60" height="30" as="geometry" />
        </mxCell>
        <mxCell id="MRoGSmbl9sD6vFDBAQAn-1" value="224B(16-byte × 14 pairs)" style="text;html=1;strokeColor=none;fillColor=none;align=center;verticalAlign=middle;whiteSpace=wrap;rounded=0;fontFamily=Times New Roman;fontSize=18;" vertex="1" parent="UIxMZkgykjUtvHOcaM9F-1">
          <mxGeometry x="1062" y="150" width="190" height="30" as="geometry" />
        </mxCell>
        <mxCell id="MRoGSmbl9sD6vFDBAQAn-4" value="&lt;font style=&quot;font-size: 20px&quot;&gt;NVM&lt;/font&gt;" style="text;html=1;align=center;verticalAlign=middle;resizable=0;points=[];autosize=1;strokeColor=none;fillColor=none;fontSize=18;fontFamily=Times New Roman;" vertex="1" parent="UIxMZkgykjUtvHOcaM9F-1">
          <mxGeometry x="180" y="665" width="60" height="30" as="geometry" />
        </mxCell>
        <mxCell id="MRoGSmbl9sD6vFDBAQAn-6" value="Hash Table" style="text;html=1;align=center;verticalAlign=middle;resizable=0;points=[];autosize=1;strokeColor=none;fillColor=none;fontSize=20;fontFamily=Times New Roman;" vertex="1" parent="UIxMZkgykjUtvHOcaM9F-1">
          <mxGeometry x="675" y="75" width="110" height="30" as="geometry" />
        </mxCell>
        <mxCell id="MRoGSmbl9sD6vFDBAQAn-7" value="Key x" style="text;html=1;strokeColor=none;fillColor=none;align=center;verticalAlign=middle;whiteSpace=wrap;rounded=0;fontFamily=Times New Roman;fontSize=20;" vertex="1" parent="UIxMZkgykjUtvHOcaM9F-1">
          <mxGeometry x="20" y="325" width="60" height="30" as="geometry" />
        </mxCell>
        <mxCell id="MRoGSmbl9sD6vFDBAQAn-8" value="" style="endArrow=classic;html=1;rounded=0;fontFamily=Times New Roman;fontSize=20;curved=1;" edge="1" parent="UIxMZkgykjUtvHOcaM9F-1">
          <mxGeometry width="50" height="50" relative="1" as="geometry">
            <mxPoint x="70" y="330" as="sourcePoint" />
            <mxPoint x="140" y="250" as="targetPoint" />
          </mxGeometry>
        </mxCell>
        <mxCell id="MRoGSmbl9sD6vFDBAQAn-9" value="" style="endArrow=classic;html=1;rounded=0;fontFamily=Times New Roman;fontSize=20;curved=1;" edge="1" parent="UIxMZkgykjUtvHOcaM9F-1">
          <mxGeometry width="50" height="50" relative="1" as="geometry">
            <mxPoint x="70" y="360" as="sourcePoint" />
            <mxPoint x="140" y="420" as="targetPoint" />
          </mxGeometry>
        </mxCell>
        <mxCell id="MRoGSmbl9sD6vFDBAQAn-12" value="" style="rounded=0;whiteSpace=wrap;html=1;fontSize=20;strokeColor=#000000;strokeWidth=2;fontFamily=Times New Roman;" vertex="1" parent="UIxMZkgykjUtvHOcaM9F-1">
          <mxGeometry x="-170" y="170" width="90" height="30" as="geometry" />
        </mxCell>
        <mxCell id="MRoGSmbl9sD6vFDBAQAn-14" value="" style="rounded=0;whiteSpace=wrap;html=1;fontSize=20;strokeColor=#000000;strokeWidth=2;fontFamily=Times New Roman;fillColor=#f5f5f5;fontColor=#333333;" vertex="1" parent="UIxMZkgykjUtvHOcaM9F-1">
          <mxGeometry x="-170" y="200" width="90" height="30" as="geometry" />
        </mxCell>
        <mxCell id="MRoGSmbl9sD6vFDBAQAn-15" value="" style="rounded=0;whiteSpace=wrap;html=1;fontSize=20;strokeColor=#000000;strokeWidth=2;fontFamily=Times New Roman;" vertex="1" parent="UIxMZkgykjUtvHOcaM9F-1">
          <mxGeometry x="-170" y="230" width="90" height="30" as="geometry" />
        </mxCell>
        <mxCell id="MRoGSmbl9sD6vFDBAQAn-16" value="" style="rounded=0;whiteSpace=wrap;html=1;fontSize=20;strokeColor=#000000;strokeWidth=2;fontFamily=Times New Roman;fillColor=#f5f5f5;fontColor=#333333;" vertex="1" parent="UIxMZkgykjUtvHOcaM9F-1">
          <mxGeometry x="-170" y="260" width="90" height="30" as="geometry" />
        </mxCell>
        <mxCell id="MRoGSmbl9sD6vFDBAQAn-17" value="" style="rounded=0;whiteSpace=wrap;html=1;fontSize=20;strokeColor=#000000;strokeWidth=2;fontFamily=Times New Roman;" vertex="1" parent="UIxMZkgykjUtvHOcaM9F-1">
          <mxGeometry x="-170" y="290" width="90" height="30" as="geometry" />
        </mxCell>
        <mxCell id="MRoGSmbl9sD6vFDBAQAn-18" value="" style="rounded=0;whiteSpace=wrap;html=1;fontSize=20;strokeColor=#000000;strokeWidth=2;fontFamily=Times New Roman;fillColor=#f5f5f5;fontColor=#333333;" vertex="1" parent="UIxMZkgykjUtvHOcaM9F-1">
          <mxGeometry x="-170" y="320" width="90" height="30" as="geometry" />
        </mxCell>
        <mxCell id="MRoGSmbl9sD6vFDBAQAn-19" value="" style="rounded=0;whiteSpace=wrap;html=1;fontSize=20;strokeColor=#000000;strokeWidth=2;fontFamily=Times New Roman;" vertex="1" parent="UIxMZkgykjUtvHOcaM9F-1">
          <mxGeometry x="-170" y="350" width="90" height="30" as="geometry" />
        </mxCell>
        <mxCell id="MRoGSmbl9sD6vFDBAQAn-20" value="" style="rounded=0;whiteSpace=wrap;html=1;fontSize=20;strokeColor=#000000;strokeWidth=2;fontFamily=Times New Roman;fillColor=#f5f5f5;fontColor=#333333;" vertex="1" parent="UIxMZkgykjUtvHOcaM9F-1">
          <mxGeometry x="-170" y="380" width="90" height="30" as="geometry" />
        </mxCell>
        <mxCell id="MRoGSmbl9sD6vFDBAQAn-21" value="" style="rounded=0;whiteSpace=wrap;html=1;fontSize=20;strokeColor=#000000;strokeWidth=2;fontFamily=Times New Roman;" vertex="1" parent="UIxMZkgykjUtvHOcaM9F-1">
          <mxGeometry x="-170" y="410" width="90" height="30" as="geometry" />
        </mxCell>
        <mxCell id="MRoGSmbl9sD6vFDBAQAn-22" value="" style="rounded=0;whiteSpace=wrap;html=1;fontSize=20;strokeColor=#000000;strokeWidth=2;fontFamily=Times New Roman;fillColor=#f5f5f5;fontColor=#333333;" vertex="1" parent="UIxMZkgykjUtvHOcaM9F-1">
          <mxGeometry x="-170" y="440" width="90" height="30" as="geometry" />
        </mxCell>
        <mxCell id="MRoGSmbl9sD6vFDBAQAn-23" value="" style="rounded=0;whiteSpace=wrap;html=1;fontSize=20;strokeColor=#000000;strokeWidth=2;fontFamily=Times New Roman;" vertex="1" parent="UIxMZkgykjUtvHOcaM9F-1">
          <mxGeometry x="-170" y="470" width="90" height="30" as="geometry" />
        </mxCell>
        <mxCell id="MRoGSmbl9sD6vFDBAQAn-24" value="" style="rounded=0;whiteSpace=wrap;html=1;fontSize=20;strokeColor=#000000;strokeWidth=2;fontFamily=Times New Roman;fillColor=#f5f5f5;fontColor=#333333;" vertex="1" parent="UIxMZkgykjUtvHOcaM9F-1">
          <mxGeometry x="-170" y="500" width="90" height="30" as="geometry" />
        </mxCell>
        <mxCell id="MRoGSmbl9sD6vFDBAQAn-25" value="" style="rounded=0;whiteSpace=wrap;html=1;strokeColor=#000000;strokeWidth=2;fontFamily=Times New Roman;" vertex="1" parent="UIxMZkgykjUtvHOcaM9F-1">
          <mxGeometry x="1070" y="650" width="100" height="60" as="geometry" />
        </mxCell>
        <mxCell id="MRoGSmbl9sD6vFDBAQAn-28" value="" style="rounded=0;whiteSpace=wrap;html=1;strokeColor=#000000;strokeWidth=2;fontFamily=Times New Roman;" vertex="1" parent="UIxMZkgykjUtvHOcaM9F-1">
          <mxGeometry x="-280" y="650" width="100" height="60" as="geometry" />
        </mxCell>
        <mxCell id="MRoGSmbl9sD6vFDBAQAn-30" value="" style="rounded=0;whiteSpace=wrap;html=1;strokeColor=#000000;strokeWidth=2;fontFamily=Times New Roman;fillColor=#f5f5f5;fontColor=#333333;" vertex="1" parent="UIxMZkgykjUtvHOcaM9F-1">
          <mxGeometry x="-180" y="650" width="100" height="60" as="geometry" />
        </mxCell>
        <mxCell id="MRoGSmbl9sD6vFDBAQAn-31" value="" style="rounded=0;whiteSpace=wrap;html=1;strokeColor=#000000;strokeWidth=2;fontFamily=Times New Roman;" vertex="1" parent="UIxMZkgykjUtvHOcaM9F-1">
          <mxGeometry x="-80" y="650" width="100" height="60" as="geometry" />
        </mxCell>
        <mxCell id="MRoGSmbl9sD6vFDBAQAn-32" value="" style="endArrow=classic;html=1;rounded=0;fontFamily=Times New Roman;fontSize=20;curved=1;exitX=0;exitY=0.25;exitDx=0;exitDy=0;" edge="1" parent="UIxMZkgykjUtvHOcaM9F-1" source="MRoGSmbl9sD6vFDBAQAn-7">
          <mxGeometry width="50" height="50" relative="1" as="geometry">
            <mxPoint x="10" y="320" as="sourcePoint" />
            <mxPoint x="-50" y="250" as="targetPoint" />
          </mxGeometry>
        </mxCell>
        <mxCell id="MRoGSmbl9sD6vFDBAQAn-34" value="" style="endArrow=classic;html=1;rounded=0;fontFamily=Times New Roman;fontSize=20;curved=1;" edge="1" parent="UIxMZkgykjUtvHOcaM9F-1">
          <mxGeometry width="50" height="50" relative="1" as="geometry">
            <mxPoint x="15" y="360" as="sourcePoint" />
            <mxPoint x="-50" y="420" as="targetPoint" />
          </mxGeometry>
        </mxCell>
        <mxCell id="MRoGSmbl9sD6vFDBAQAn-35" value="&lt;span style=&quot;font-size: 18px&quot;&gt;VersionLock&lt;/span&gt;" style="text;html=1;align=center;verticalAlign=middle;resizable=0;points=[];autosize=1;strokeColor=none;fillColor=none;fontSize=16;fontFamily=Times New Roman;" vertex="1" parent="UIxMZkgykjUtvHOcaM9F-1">
          <mxGeometry x="-190" y="720" width="110" height="20" as="geometry" />
        </mxCell>
        <mxCell id="MRoGSmbl9sD6vFDBAQAn-36" value="" style="endArrow=none;dashed=1;html=1;rounded=0;fontFamily=Times New Roman;fontSize=18;curved=1;exitX=0;exitY=0;exitDx=0;exitDy=0;entryX=0;entryY=1;entryDx=0;entryDy=0;" edge="1" parent="UIxMZkgykjUtvHOcaM9F-1" source="MRoGSmbl9sD6vFDBAQAn-30" target="MRoGSmbl9sD6vFDBAQAn-24">
          <mxGeometry width="50" height="50" relative="1" as="geometry">
            <mxPoint x="-170" y="590" as="sourcePoint" />
            <mxPoint x="-120" y="540" as="targetPoint" />
          </mxGeometry>
        </mxCell>
        <mxCell id="MRoGSmbl9sD6vFDBAQAn-37" value="" style="endArrow=none;dashed=1;html=1;rounded=0;fontFamily=Times New Roman;fontSize=18;curved=1;exitX=0;exitY=0;exitDx=0;exitDy=0;entryX=1;entryY=1;entryDx=0;entryDy=0;" edge="1" parent="UIxMZkgykjUtvHOcaM9F-1" source="MRoGSmbl9sD6vFDBAQAn-31" target="MRoGSmbl9sD6vFDBAQAn-24">
          <mxGeometry width="50" height="50" relative="1" as="geometry">
            <mxPoint x="-90" y="650" as="sourcePoint" />
            <mxPoint x="-60" y="530" as="targetPoint" />
          </mxGeometry>
        </mxCell>
        <mxCell id="MRoGSmbl9sD6vFDBAQAn-38" value="&lt;font style=&quot;font-size: 20px&quot;&gt;DRAM&lt;/font&gt;" style="text;html=1;align=center;verticalAlign=middle;resizable=0;points=[];autosize=1;strokeColor=none;fillColor=none;fontSize=18;fontFamily=Times New Roman;" vertex="1" parent="UIxMZkgykjUtvHOcaM9F-1">
          <mxGeometry x="30" y="665" width="80" height="30" as="geometry" />
        </mxCell>
        <mxCell id="MRoGSmbl9sD6vFDBAQAn-39" value="" style="rounded=0;whiteSpace=wrap;html=1;strokeColor=#000000;strokeWidth=2;fontFamily=Times New Roman;" vertex="1" parent="UIxMZkgykjUtvHOcaM9F-1">
          <mxGeometry x="-380" y="650" width="100" height="60" as="geometry" />
        </mxCell>
        <mxCell id="MRoGSmbl9sD6vFDBAQAn-51" value="version" style="rounded=0;whiteSpace=wrap;html=1;fontFamily=Times New Roman;fontSize=18;strokeColor=#000000;strokeWidth=2;" vertex="1" parent="UIxMZkgykjUtvHOcaM9F-1">
          <mxGeometry x="-370" y="170" width="110" height="40" as="geometry" />
        </mxCell>
        <mxCell id="MRoGSmbl9sD6vFDBAQAn-52" value="evict" style="rounded=0;whiteSpace=wrap;html=1;fontFamily=Times New Roman;fontSize=18;strokeColor=#000000;strokeWidth=2;fillColor=#f5f5f5;fontColor=#333333;" vertex="1" parent="UIxMZkgykjUtvHOcaM9F-1">
          <mxGeometry x="-370" y="210" width="110" height="40" as="geometry" />
        </mxCell>
        <mxCell id="MRoGSmbl9sD6vFDBAQAn-53" value="full" style="rounded=0;whiteSpace=wrap;html=1;fontFamily=Times New Roman;fontSize=18;strokeColor=#000000;strokeWidth=2;" vertex="1" parent="UIxMZkgykjUtvHOcaM9F-1">
          <mxGeometry x="-370" y="250" width="110" height="40" as="geometry" />
        </mxCell>
        <mxCell id="MRoGSmbl9sD6vFDBAQAn-54" value="lock" style="rounded=0;whiteSpace=wrap;html=1;fontFamily=Times New Roman;fontSize=18;strokeColor=#000000;strokeWidth=2;fillColor=#f5f5f5;fontColor=#333333;" vertex="1" parent="UIxMZkgykjUtvHOcaM9F-1">
          <mxGeometry x="-370" y="290" width="110" height="40" as="geometry" />
        </mxCell>
        <mxCell id="MRoGSmbl9sD6vFDBAQAn-55" value="" style="endArrow=classic;html=1;rounded=0;fontFamily=Times New Roman;fontSize=18;strokeWidth=2;curved=1;" edge="1" parent="UIxMZkgykjUtvHOcaM9F-1">
          <mxGeometry width="50" height="50" relative="1" as="geometry">
            <mxPoint x="-175" y="184.57999999999998" as="sourcePoint" />
            <mxPoint x="-255" y="184.57999999999998" as="targetPoint" />
          </mxGeometry>
        </mxCell>
        <mxCell id="MRoGSmbl9sD6vFDBAQAn-56" value="&lt;font style=&quot;font-size: 14px&quot;&gt;0&lt;/font&gt;" style="text;html=1;strokeColor=none;fillColor=none;align=center;verticalAlign=middle;whiteSpace=wrap;rounded=0;fontFamily=Times New Roman;fontSize=18;" vertex="1" parent="UIxMZkgykjUtvHOcaM9F-1">
          <mxGeometry x="-400" y="155" width="37" height="20" as="geometry" />
        </mxCell>
        <mxCell id="MRoGSmbl9sD6vFDBAQAn-57" value="&lt;span style=&quot;font-size: 14px&quot;&gt;13&lt;/span&gt;" style="text;html=1;strokeColor=none;fillColor=none;align=center;verticalAlign=middle;whiteSpace=wrap;rounded=0;fontFamily=Times New Roman;fontSize=18;" vertex="1" parent="UIxMZkgykjUtvHOcaM9F-1">
          <mxGeometry x="-400" y="200" width="37" height="20" as="geometry" />
        </mxCell>
        <mxCell id="MRoGSmbl9sD6vFDBAQAn-58" value="&lt;span style=&quot;font-size: 14px&quot;&gt;14&lt;/span&gt;" style="text;html=1;strokeColor=none;fillColor=none;align=center;verticalAlign=middle;whiteSpace=wrap;rounded=0;fontFamily=Times New Roman;fontSize=18;" vertex="1" parent="UIxMZkgykjUtvHOcaM9F-1">
          <mxGeometry x="-400" y="240" width="37" height="20" as="geometry" />
        </mxCell>
        <mxCell id="MRoGSmbl9sD6vFDBAQAn-59" value="&lt;span style=&quot;font-size: 14px&quot;&gt;15&lt;/span&gt;" style="text;html=1;strokeColor=none;fillColor=none;align=center;verticalAlign=middle;whiteSpace=wrap;rounded=0;fontFamily=Times New Roman;fontSize=18;" vertex="1" parent="UIxMZkgykjUtvHOcaM9F-1">
          <mxGeometry x="-400" y="280" width="37" height="20" as="geometry" />
        </mxCell>
        <mxCell id="MRoGSmbl9sD6vFDBAQAn-60" value="&lt;span style=&quot;font-size: 14px&quot;&gt;16&lt;/span&gt;" style="text;html=1;strokeColor=none;fillColor=none;align=center;verticalAlign=middle;whiteSpace=wrap;rounded=0;fontFamily=Times New Roman;fontSize=18;" vertex="1" parent="UIxMZkgykjUtvHOcaM9F-1">
          <mxGeometry x="-400" y="320" width="37" height="20" as="geometry" />
        </mxCell>
        <mxCell id="MRoGSmbl9sD6vFDBAQAn-63" value="&lt;font style=&quot;font-size: 14px&quot;&gt;0&lt;/font&gt;" style="text;html=1;strokeColor=none;fillColor=none;align=center;verticalAlign=middle;whiteSpace=wrap;rounded=0;fontFamily=Times New Roman;fontSize=18;" vertex="1" parent="UIxMZkgykjUtvHOcaM9F-1">
          <mxGeometry x="1380" y="270" width="37" height="20" as="geometry" />
        </mxCell>
        <mxCell id="MRoGSmbl9sD6vFDBAQAn-64" value="&lt;span style=&quot;font-size: 14px&quot;&gt;64&lt;/span&gt;" style="text;html=1;strokeColor=none;fillColor=none;align=center;verticalAlign=middle;whiteSpace=wrap;rounded=0;fontFamily=Times New Roman;fontSize=18;" vertex="1" parent="UIxMZkgykjUtvHOcaM9F-1">
          <mxGeometry x="1380" y="310" width="37" height="20" as="geometry" />
        </mxCell>
        <mxCell id="MRoGSmbl9sD6vFDBAQAn-65" value="&lt;span style=&quot;font-size: 14px&quot;&gt;176&lt;/span&gt;" style="text;html=1;strokeColor=none;fillColor=none;align=center;verticalAlign=middle;whiteSpace=wrap;rounded=0;fontFamily=Times New Roman;fontSize=18;" vertex="1" parent="UIxMZkgykjUtvHOcaM9F-1">
          <mxGeometry x="1380" y="350" width="37" height="20" as="geometry" />
        </mxCell>
        <mxCell id="MRoGSmbl9sD6vFDBAQAn-66" value="&lt;span style=&quot;font-size: 14px&quot;&gt;240&lt;/span&gt;" style="text;html=1;strokeColor=none;fillColor=none;align=center;verticalAlign=middle;whiteSpace=wrap;rounded=0;fontFamily=Times New Roman;fontSize=18;" vertex="1" parent="UIxMZkgykjUtvHOcaM9F-1">
          <mxGeometry x="1380" y="390" width="37" height="20" as="geometry" />
        </mxCell>
        <mxCell id="MRoGSmbl9sD6vFDBAQAn-67" value="&lt;span style=&quot;font-size: 14px&quot;&gt;240&lt;/span&gt;" style="text;html=1;strokeColor=none;fillColor=none;align=center;verticalAlign=middle;whiteSpace=wrap;rounded=0;fontFamily=Times New Roman;fontSize=18;" vertex="1" parent="UIxMZkgykjUtvHOcaM9F-1">
          <mxGeometry x="1380" y="430" width="37" height="20" as="geometry" />
        </mxCell>
      </root>
    </mxGraphModel>
  </diagram>
</mxfile>
